<svg width="168" height="168" viewBox="0 0 168 168" fill="none" xmlns="http://www.w3.org/2000/svg">
<rect width="172" height="172" transform="translate(-2 -2)" fill="#EAEAEA"/>
<path d="M66.423 126.338C66.6158 126.595 66.8286 126.857 67.0546 127.119C64.4315 126.835 61.6506 126.147 58.8901 125.103C54.0255 123.263 49.4421 120.398 46.1384 117.023C42.8137 113.626 40.9965 109.946 41.075 106.422C41.1483 103.132 42.8917 99.3762 47.9075 95.587L48.0606 95.587L48.7754 94.9394C57.4404 87.0891 65.5286 81.2821 74.1225 79.8419C82.3436 78.4641 91.5956 81.0146 102.9 91.1391L103.499 91.6865C103.995 92.1391 104.532 92.6191 105.099 93.1251C108.604 96.2527 113.223 100.375 115.839 105.163C117.317 107.868 118.026 110.579 117.62 113.28C117.217 115.957 115.662 118.998 111.891 122.274L111.857 122.304L111.823 122.336C106.696 127.135 100.585 127.407 93.514 125.904C90.2025 125.2 86.8225 124.137 83.3356 123.04C83.0787 122.959 82.8214 122.878 82.5634 122.797C78.8611 121.634 75.0315 120.459 71.3175 119.82L71.3171 119.82C70.2255 119.632 69.2085 119.55 68.3262 119.663C67.4928 119.771 66.2263 120.135 65.5052 121.376C64.7985 122.592 65.1023 123.822 65.3427 124.463C65.6052 125.164 66.0274 125.81 66.423 126.338Z" stroke="white" stroke-width="5"/>
<path d="M52.1218 60.1689C53.6637 60.7091 54.977 62.1473 55.6523 64.4678C56.326 66.7827 56.279 69.7739 55.2041 72.8416C54.1292 75.9092 52.299 78.2756 50.3278 79.6637C48.3519 81.0553 46.4281 81.3592 44.8862 80.8189C43.3443 80.2786 42.0309 78.8405 41.3557 76.5199C40.682 74.2051 40.729 71.2139 41.8039 68.1462C42.8787 65.0785 44.709 62.7122 46.6802 61.3241C48.6561 59.9325 50.5799 59.6286 52.1218 60.1689Z" stroke="white" stroke-width="5"/>
<path d="M77.4436 44.5341C78.9855 45.0744 80.2988 46.5125 80.9741 48.8331C81.6477 51.1479 81.6008 54.1391 80.5259 57.2068C79.451 60.2745 77.6207 62.6408 75.6496 64.029C73.6736 65.4205 71.7499 65.7244 70.208 65.1842C68.6661 64.6439 67.3527 63.2057 66.6774 60.8852C66.0038 58.5703 66.0507 55.5791 67.1256 52.5115C68.2005 49.4438 70.0308 47.0774 72.0019 45.6893C73.9779 44.2977 75.9017 43.9938 77.4436 44.5341Z" stroke="white" stroke-width="5"/>
<path d="M103.196 44.5341C104.737 45.0744 106.051 46.5125 106.726 48.8331C107.4 51.1479 107.353 54.1391 106.278 57.2068C105.203 60.2745 103.373 62.6408 101.402 64.029C99.4256 65.4205 97.5018 65.7244 95.9599 65.1842C94.418 64.6439 93.1047 63.2057 92.4294 60.8852C91.7557 58.5703 91.8027 55.5791 92.8776 52.5115C93.9525 49.4438 95.7828 47.0774 97.7539 45.6893C99.7299 44.2977 101.654 43.9938 103.196 44.5341Z" stroke="white" stroke-width="5"/>
<path d="M123.852 67.1669C125.394 67.7072 126.707 69.1453 127.382 71.4659C128.056 73.7807 128.009 76.7719 126.934 79.8396C125.859 82.9073 124.029 85.2736 122.058 86.6618C120.082 88.0533 118.158 88.3572 116.616 87.817C115.074 87.2767 113.761 85.8385 113.086 83.518C112.412 81.2031 112.459 78.212 113.534 75.1443C114.609 72.0766 116.439 69.7102 118.41 68.3221C120.386 66.9305 122.31 66.6266 123.852 67.1669Z" stroke="white" stroke-width="5"/>
<path d="M113.537 124.167C101.523 135.412 84.9924 124.709 70.8993 122.289C62.969 120.926 71.4942 128.054 73.1403 129.515C54.8249 132.438 23.381 110.108 47.0852 93.098C61.6405 86.5655 75.4853 83.5273 88.9143 102.634C95.2504 111.644 103.29 121.348 113.543 124.167H113.537Z" fill="url(#paint0_linear_1629_26991)"/>
<defs>
<linearGradient id="paint0_linear_1629_26991" x1="76.0571" y1="129.769" x2="76.0571" y2="88.0903" gradientUnits="userSpaceOnUse">
<stop offset="0.02" stop-color="#7CCBFF"/>
<stop offset="1" stop-color="#0057FF"/>
</linearGradient>
</defs>
</svg>
