<svg width="350" height="74" viewBox="0 0 350 74" fill="none" xmlns="http://www.w3.org/2000/svg">
<g clip-path="url(#clip0_621_46)">
<path d="M229.476 67.8652C227.857 66.0055 227.048 63.7001 227.048 60.9615C227.048 59.7642 227.187 58.4013 227.478 56.8855C227.756 55.3698 228.06 53.8922 228.376 52.4656C228.692 51.039 228.894 50.1219 229.008 49.7143C229.463 47.7146 229.894 45.7403 230.286 43.7914C230.678 41.8426 230.88 40.2759 230.88 39.0658C230.88 36.149 229.856 34.6842 227.807 34.6842C226.327 34.6842 225.024 35.4102 223.886 36.875C222.747 38.3398 221.837 40.2377 221.154 42.5814L215.361 70.1197H203.092L209.315 40.5179C209.479 39.8301 209.568 39.1168 209.568 38.378C209.568 35.856 208.721 34.6077 207.013 34.6077C205.419 34.6077 204.041 35.3338 202.877 36.7986C201.713 38.2634 200.79 40.1867 200.107 42.5941L194.314 70.1325H182.046L191.076 27.2328H203.345L202.409 31.6909C205.306 28.4301 208.771 26.7997 212.806 26.7997C217.802 26.7997 220.736 29.258 221.584 34.1747C224.708 29.309 228.654 26.8761 233.422 26.8761C236.319 26.8761 238.621 27.6786 240.328 29.2835C242.036 30.8884 242.883 33.3213 242.883 36.582C242.883 38.2379 242.681 40.0848 242.289 42.1228C241.897 44.1481 241.327 46.6319 240.581 49.5488C240.126 51.3193 239.708 53.0516 239.342 54.7456C238.975 56.4397 238.785 57.7644 238.785 58.7325C238.785 59.8788 239.038 60.7577 239.557 61.3946C240.063 62.0187 240.948 62.3372 242.2 62.3372C243.908 62.3372 245.274 61.7258 246.286 60.4902C247.31 59.2547 248.335 57.3568 249.346 54.7838H252.926C250.826 61.0761 248.398 65.2922 245.64 67.4449C242.883 69.5848 240.025 70.6674 237.078 70.6674C233.612 70.6674 231.07 69.7376 229.451 67.8779L229.476 67.8652Z" fill="black"/>
<path d="M251.837 67.2283C249.396 65.0502 248.169 61.6239 248.169 56.9365C248.169 53.0516 248.966 48.7336 250.56 43.9825C252.153 39.2314 254.708 35.13 258.225 31.6654C261.741 28.2008 266.18 26.4685 271.518 26.4685C278.79 26.4685 282.42 31.0412 282.42 40.1995V40.2886C282.585 40.3523 282.901 40.3778 283.356 40.3778C285.228 40.3778 287.391 39.881 289.832 38.8748C292.273 37.8685 294.487 36.6585 296.473 35.2319L297.244 37.5501C295.6 39.3206 293.45 40.8236 290.806 42.0591C288.163 43.2947 285.279 44.1608 282.155 44.6703C281.7 49.8799 280.536 54.4272 278.664 58.3121C276.792 62.197 274.376 65.2031 271.417 67.3175C268.457 69.4319 265.257 70.4891 261.791 70.4891C257.592 70.4891 254.266 69.4064 251.825 67.2283H251.837ZM269.304 60.4011C270.67 58.8344 271.859 56.6817 272.884 53.9686C273.908 51.2556 274.642 48.2368 275.097 44.9123C273.567 44.5684 272.795 43.3711 272.795 41.3076C272.795 38.9639 273.681 37.4227 275.439 36.6712C275.325 34.7861 275.034 33.4868 274.591 32.7735C274.136 32.0602 273.339 31.7036 272.201 31.7036C270.329 31.7036 268.507 33.0792 266.749 35.8178C264.991 38.5691 263.562 41.8553 262.487 45.6893C261.412 49.5233 260.868 52.8987 260.868 55.8156C260.868 58.5669 261.184 60.4011 261.804 61.3564C262.424 62.2989 263.562 62.7702 265.219 62.7702C266.585 62.7702 267.951 61.9805 269.304 60.4138V60.4011Z" fill="black"/>
<path d="M292.566 27.2452H304.835L303.722 32.5695C305.657 30.8499 307.403 29.538 308.958 28.6209C310.514 27.7038 312.209 27.2452 314.03 27.2452C315.852 27.2452 317.281 27.8694 318.331 29.1304C319.38 30.3914 319.912 31.9071 319.912 33.6777C319.912 35.3335 319.368 36.7983 318.293 38.0593C317.218 39.3203 315.712 39.9445 313.777 39.9445C312.525 39.9445 311.69 39.6388 311.26 39.0401C310.83 38.4415 310.501 37.5626 310.274 36.4289C310.109 35.6902 309.932 35.1425 309.768 34.7985C309.603 34.4546 309.287 34.289 308.832 34.289C307.643 34.289 306.631 34.5311 305.809 35.0151C304.987 35.4991 303.924 36.3398 302.609 37.5498L295.792 70.1577H283.523L292.554 27.258L292.566 27.2452Z" fill="black"/>
<path d="M321.112 67.3556C318.784 65.152 317.621 61.7129 317.621 57.0128C317.621 53.0642 318.392 48.7207 319.923 43.9697C321.453 39.2186 323.958 35.1171 327.423 31.6526C330.889 28.188 335.29 26.4557 340.628 26.4557C346.876 26.4557 350 29.207 350 34.6968C350 37.9066 349.089 40.849 347.268 43.5366C345.447 46.2242 343.031 48.3896 340.021 50.02C337.01 51.6503 333.798 52.5802 330.396 52.8094C330.282 54.0705 330.231 54.9239 330.231 55.3824C330.231 60.1335 331.989 62.5026 335.518 62.5026C337.112 62.5026 338.807 62.0696 340.628 61.2162C342.449 60.3628 344.093 59.2673 345.573 57.9554C344.043 66.4258 339.123 70.6546 330.838 70.6546C326.69 70.6546 323.452 69.5592 321.124 67.3556H321.112ZM337.086 46.5426C338.984 45.167 340.527 43.4092 341.69 41.2693C342.854 39.1294 343.436 36.8749 343.436 34.5312C343.436 32.1875 342.727 31.0157 341.311 31.0157C339.325 31.0157 337.352 32.8371 335.392 36.4673C333.431 40.0975 331.964 44.1735 331.003 48.6953C333.165 48.6443 335.189 47.9183 337.099 46.5554L337.086 46.5426Z" fill="black"/>
<path d="M10.5106 41.6642V70.1451H0V0H11.9146C17.7454 0 22.1596 0.407598 25.1319 1.22279C28.1422 2.03799 30.7856 3.57922 33.0749 5.85922C37.0718 9.79509 39.0702 14.7627 39.0702 20.762C39.0702 27.1817 36.9326 32.2767 32.6702 36.0215C28.3951 39.779 22.6402 41.6514 15.3928 41.6514H10.5233L10.5106 41.6642ZM10.5106 31.8563H14.4316C24.0821 31.8563 28.9137 28.1115 28.9137 20.6347C28.9137 13.1578 23.9303 9.78235 13.9762 9.78235H10.498V31.8436L10.5106 31.8563Z" fill="black"/>
<path d="M70.9311 25.8951H81.1256V70.145H70.9311V65.5085C66.7572 69.4444 62.2545 71.4187 57.4482 71.4187C51.3771 71.4187 46.3558 69.2024 42.3842 64.7825C38.438 60.2734 36.4775 54.6308 36.4775 47.8799C36.4775 41.1291 38.4507 35.7156 42.3842 31.2958C46.3305 26.8759 51.2506 24.6595 57.1826 24.6595C62.2924 24.6595 66.8837 26.774 70.9438 31.0155V25.8823L70.9311 25.8951ZM46.8364 47.8799C46.8364 52.1215 47.9621 55.5733 50.2134 58.2355C52.5281 60.9358 55.4498 62.2732 58.966 62.2732C62.7225 62.2732 65.758 60.974 68.0726 58.3628C70.3873 55.6625 71.5509 52.2488 71.5509 48.0964C71.5509 43.944 70.3873 40.5304 68.0726 37.8301C65.758 35.1934 62.7478 33.8815 59.0545 33.8815C55.5636 33.8815 52.6545 35.2189 50.302 37.881C47.9874 40.5814 46.8237 43.9058 46.8237 47.8799H46.8364Z" fill="black"/>
<path d="M93.3303 25.8951L104.827 51.1534L117.235 21.8573L129.732 51.1534L141.102 25.8951H152.473L129.466 73.4567L117.235 44.9758L104.878 73.4567L81.9216 25.8951H93.3303Z" fill="black"/>
<path d="M177.935 33.4357L169.55 37.932C168.221 35.2062 166.59 33.8433 164.629 33.8433C163.693 33.8433 162.897 34.149 162.239 34.7731C161.581 35.3973 161.252 36.187 161.252 37.1551C161.252 38.8491 163.2 40.5305 167.121 42.1991C172.509 44.53 176.127 46.6827 177.999 48.6442C179.858 50.6185 180.794 53.2679 180.794 56.5924C180.794 60.8594 179.225 64.4386 176.101 67.3173C173.066 70.0431 169.398 71.406 165.097 71.406C157.724 71.406 152.512 67.7886 149.439 60.5537L158.103 56.516C159.305 58.6431 160.228 59.9805 160.86 60.5537C162.087 61.7001 163.567 62.286 165.287 62.286C168.715 62.286 170.435 60.7066 170.435 57.5604C170.435 55.739 169.107 54.0449 166.463 52.4782C165.439 51.9687 164.414 51.4592 163.39 50.9752C162.365 50.4911 161.328 49.9944 160.278 49.4722C157.331 48.0201 155.257 46.568 154.056 45.1159C152.525 43.269 151.754 40.8871 151.754 37.983C151.754 34.1363 153.056 30.9519 155.675 28.4426C158.356 25.9334 161.594 24.6724 165.414 24.6724C171.042 24.6724 175.216 27.5892 177.961 33.4357H177.935Z" fill="black"/>
</g>
<defs>
<clipPath id="clip0_621_46">
<rect width="350" height="73.4568" fill="white"/>
</clipPath>
</defs>
</svg>
