<svg width="32" height="32" viewBox="0 0 32 32" fill="none" xmlns="http://www.w3.org/2000/svg">
<rect width="32" height="32" rx="12.4138" fill="white"/>
<path d="M22.0254 16.5406C15.6581 10.7231 11.1698 13.2059 6.53369 17.4062C6.53369 17.4062 6.53061 17.4062 6.52907 17.4077C0.207926 21.9422 8.59453 27.8967 13.4771 27.1189C13.0381 26.7292 10.7647 24.8286 12.8795 25.1921C16.6392 25.839 21.0458 28.6915 24.2495 25.6927C28.6223 21.8929 23.8198 18.1809 22.0239 16.5406H22.0254Z" fill="black"/>
<path d="M9.32482 12.228C9.97939 10.3599 9.4284 8.46648 8.09416 7.99897C6.75991 7.53146 5.14766 8.66687 4.49309 10.535C3.83852 12.4031 4.38951 14.2965 5.72376 14.764C7.058 15.2315 8.67026 14.0961 9.32482 12.228Z" fill="black"/>
<path d="M16.0773 8.05878C16.7319 6.19068 16.1809 4.29729 14.8466 3.82978C13.5124 3.36227 11.9001 4.49768 11.2456 6.36579C10.591 8.23389 11.142 10.1273 12.4762 10.5948C13.8105 11.0623 15.4227 9.92689 16.0773 8.05878Z" fill="black"/>
<path d="M22.9444 8.05854C23.599 6.19043 23.048 4.29704 21.7138 3.82954C20.3795 3.36203 18.7673 4.49744 18.1127 6.36554C17.4581 8.23365 18.0091 10.127 19.3434 10.5945C20.6776 11.0621 22.2899 9.92664 22.9444 8.05854Z" fill="black"/>
<path d="M28.4528 14.0939C29.1074 12.2258 28.5564 10.3324 27.2221 9.86494C25.8879 9.39743 24.2756 10.5328 23.6211 12.4009C22.9665 14.269 23.5175 16.1624 24.8517 16.6299C26.186 17.0975 27.7982 15.962 28.4528 14.0939Z" fill="black"/>
<path d="M24.251 25.6943C21.0474 28.6931 16.6392 25.8391 12.881 25.1937C10.7663 24.8302 13.0397 26.7309 13.4786 27.1205C8.59452 27.8999 0.209463 21.9453 6.5306 17.4093C10.412 15.6673 14.104 14.8571 17.685 19.9523C19.3747 22.355 21.5187 24.9426 24.2526 25.6943H24.251Z" fill="url(#paint0_linear_630_165)"/>
<defs>
<linearGradient id="paint0_linear_630_165" x1="14.2564" y1="27.1883" x2="14.2564" y2="16.0739" gradientUnits="userSpaceOnUse">
<stop offset="0.02" stop-color="#7CCBFF"/>
<stop offset="1" stop-color="#0057FF"/>
</linearGradient>
</defs>
</svg>
