<svg width="120" height="120" viewBox="0 0 120 120" fill="none" xmlns="http://www.w3.org/2000/svg">
<g id="_&#229;&#156;&#150;&#229;&#177;&#164;_1">
<rect width="120" height="120" rx="31.0345" fill="black"/>
<path id="Vector" d="M82.5954 62.0273C58.7178 40.2118 41.8868 49.5225 24.5014 65.2734C24.5014 65.2734 24.4898 65.2734 24.4841 65.2792C0.77979 82.2834 32.2295 104.613 50.5391 101.696C48.893 100.235 40.3678 93.1074 48.2981 94.4705C62.397 96.8964 78.9219 107.593 90.9358 96.3477C107.334 82.0986 89.3243 68.1787 82.5896 62.0273H82.5954Z" fill="white"/>
<path id="Vector_2" d="M90.9415 96.3535C78.9276 107.599 62.397 96.8964 48.3038 94.4763C40.3735 93.1132 48.8987 100.241 50.5449 101.702C32.2295 104.625 0.785515 82.295 24.4898 65.2849C39.045 58.7524 52.8899 55.7143 66.3188 74.8209C72.655 83.8313 80.695 93.5348 90.9472 96.3535H90.9415Z" fill="url(#paint0_linear_626_182)"/>
<path id="Vector_3" d="M34.968 45.8549C37.4227 38.8495 35.3565 31.7493 30.353 29.9961C25.3496 28.243 19.3037 32.5008 16.849 39.5062C14.3944 46.5116 16.4606 53.6118 21.464 55.3649C26.4675 57.1181 32.5134 52.8603 34.968 45.8549Z" fill="white"/>
<path id="Vector_4" d="M60.2898 30.2204C62.7444 23.215 60.6782 16.1148 55.6748 14.3616C50.6714 12.6085 44.6254 16.8663 42.1708 23.8716C39.7162 30.877 41.7824 37.9772 46.7858 39.7304C51.7892 41.4836 57.8352 37.2258 60.2898 30.2204Z" fill="white"/>
<path id="Vector_5" d="M86.0415 30.2195C88.4961 23.2141 86.4299 16.1139 81.4265 14.3608C76.4231 12.6076 70.3771 16.8654 67.9225 23.8708C65.4679 30.8762 67.5341 37.9764 72.5375 39.7295C77.541 41.4827 83.5869 37.2249 86.0415 30.2195Z" fill="white"/>
<path id="Vector_6" d="M106.698 52.8523C109.153 45.8469 107.086 38.7467 102.083 36.9936C97.0796 35.2404 91.0336 39.4982 88.579 46.5036C86.1244 53.509 88.1906 60.6092 93.194 62.3624C98.1974 64.1155 104.243 59.8577 106.698 52.8523Z" fill="white"/>
</g>
<defs>
<linearGradient id="paint0_linear_626_182" x1="53.4617" y1="101.956" x2="53.4617" y2="60.2772" gradientUnits="userSpaceOnUse">
<stop offset="0.02" stop-color="#7CCBFF"/>
<stop offset="1" stop-color="#0057FF"/>
</linearGradient>
</defs>
</svg>
