<svg width="126" height="32" viewBox="0 0 126 32" fill="none" xmlns="http://www.w3.org/2000/svg">
<g opacity="0.2">
<path d="M63.5993 12.0637C62.6916 11.5719 61.5504 11.9313 61.0943 12.8687C61.0005 13.0617 60.9442 13.2647 60.9233 13.469C60.8687 14 60.7225 14.5175 60.4672 14.9866L60.3987 15.113C60.136 15.5961 59.7786 16.0208 59.35 16.3658C59.1471 16.5287 58.976 16.7386 58.8538 16.99C58.4466 17.8281 58.7508 18.8522 59.5499 19.3331C60.0766 19.6502 60.6933 19.6698 61.2122 19.4473C61.9575 19.1271 62.7915 19.0731 63.5805 19.2612C64.497 19.4804 65.6164 19.4285 66.2631 18.2393C66.9029 17.0623 66.3325 16.0953 65.65 15.4432C65.0582 14.8786 64.6694 14.1368 64.5219 13.3331C64.4259 12.8116 64.1033 12.3368 63.6002 12.0641L63.5993 12.0637Z" fill="black"/>
<path d="M63.6861 20.2838C64.5048 20.7273 64.8719 21.6325 64.5059 22.3055C64.14 22.9786 63.1796 23.1646 62.3609 22.7211C61.5421 22.2775 61.1751 21.3724 61.541 20.6993C61.907 20.0263 62.8673 19.8403 63.6861 20.2838Z" fill="black"/>
<path d="M68.159 19.7369C68.9777 20.1805 69.3448 21.0856 68.9788 21.7587C68.6129 22.4317 67.6525 22.6177 66.8338 22.1742C66.015 21.7307 65.648 20.8255 66.0139 20.1525C66.3799 19.4794 67.3402 19.2934 68.159 19.7369Z" fill="black"/>
<path d="M67.8982 12.5358C68.717 12.9793 69.084 13.8845 68.7181 14.5575C68.3521 15.2305 67.3918 15.4166 66.573 14.973C65.7543 14.5295 65.3872 13.6243 65.7532 12.9513C66.1191 12.2783 67.0795 12.0922 67.8982 12.5358Z" fill="black"/>
<path d="M69.8785 16.5748C70.6972 17.0184 71.0642 17.9235 70.6983 18.5965C70.3324 19.2696 69.372 19.4556 68.5533 19.0121C67.7345 18.5685 67.3675 17.6634 67.7334 16.9904C68.0993 16.3173 69.0597 16.1313 69.8785 16.5748Z" fill="black"/>
<path d="M78.5934 0.335198C77.6857 -0.156603 76.5445 0.202773 76.0885 1.1402C75.9946 1.33317 75.9383 1.53617 75.9174 1.74047C75.8628 2.27147 75.7166 2.78897 75.4614 3.25812L75.3928 3.38445C75.1301 3.86754 74.7727 4.29225 74.3442 4.63726C74.1412 4.80017 73.9702 5.01013 73.848 5.26148C73.4408 6.09959 73.745 7.1237 74.544 7.60461C75.0708 7.92173 75.6874 7.94133 76.2063 7.71874C76.9517 7.39857 77.7857 7.34455 78.5747 7.53274C79.4911 7.75185 80.6105 7.70001 81.2573 6.5108C81.897 5.33379 81.3267 4.36674 80.6441 3.71464C80.0523 3.15009 79.6635 2.40825 79.516 1.60456C79.42 1.08314 79.0975 0.608325 78.5943 0.335634L78.5934 0.335198Z" fill="black"/>
<path d="M78.68 8.55334C79.4987 8.99688 79.8658 9.90203 79.4998 10.5751C79.1339 11.2481 78.1735 11.4341 77.3548 10.9906C76.536 10.5471 76.169 9.6419 76.5349 8.96887C76.9009 8.29584 77.8612 8.1098 78.68 8.55334Z" fill="black"/>
<path d="M83.1526 8.00646C83.9714 8.45 84.3384 9.35516 83.9725 10.0282C83.6065 10.7012 82.6462 10.8873 81.8274 10.4437C81.0087 10.0002 80.6416 9.09503 81.0076 8.422C81.3735 7.74897 82.3339 7.56293 83.1526 8.00646Z" fill="black"/>
<path d="M82.8919 0.805292C83.7106 1.24883 84.0777 2.15399 83.7117 2.82702C83.3458 3.50005 82.3854 3.68609 81.5667 3.24255C80.7479 2.79901 80.3809 1.89386 80.7468 1.22083C81.1128 0.547796 82.0731 0.361754 82.8919 0.805292Z" fill="black"/>
<path d="M84.8723 4.84436C85.6911 5.2879 86.0581 6.19305 85.6922 6.86608C85.3263 7.53911 84.3659 7.72515 83.5471 7.28161C82.7284 6.83807 82.3614 5.93292 82.7273 5.25989C83.0932 4.58686 84.0536 4.40082 84.8723 4.84436Z" fill="black"/>
<path d="M44.7423 6.0065C43.7128 6.08363 42.9472 7.00303 43.0704 8.03818C43.0959 8.25125 43.1583 8.45244 43.2511 8.63563C43.4924 9.1118 43.6492 9.62617 43.6881 10.1589L43.6988 10.3022C43.739 10.8506 43.668 11.4011 43.4941 11.9231C43.4115 12.1699 43.3811 12.439 43.4142 12.7165C43.5249 13.6417 44.3346 14.3387 45.2668 14.3111C45.8814 14.2931 46.4107 13.9761 46.7268 13.5083C47.1807 12.8359 47.853 12.3395 48.6185 12.0712C49.5079 11.7599 50.4215 11.111 50.3225 9.76095C50.2242 8.42491 49.2215 7.91986 48.2947 7.74039C47.4916 7.58549 46.7634 7.17171 46.2047 6.57541C45.842 6.18871 45.314 5.96369 44.7433 6.00639L44.7423 6.0065Z" fill="black"/>
<path d="M49.2591 12.8728C50.1877 12.8032 50.9859 13.3661 51.042 14.1301C51.0981 14.8942 50.3908 15.57 49.4623 15.6396C48.5337 15.7092 47.7355 15.1463 47.6794 14.3822C47.6233 13.6182 48.3306 12.9424 49.2591 12.8728Z" fill="black"/>
<path d="M52.7274 9.99583C53.6559 9.92622 54.4542 10.4891 54.5103 11.2532C54.5664 12.0172 53.8591 12.693 52.9306 12.7626C52.002 12.8322 51.2038 12.2693 51.1477 11.5053C51.0916 10.7413 51.7988 10.0654 52.7274 9.99583Z" fill="black"/>
<path d="M48.6131 4.07786C49.5417 4.00825 50.3399 4.57118 50.396 5.33521C50.4521 6.09924 49.7449 6.77503 48.8163 6.84465C47.8877 6.91427 47.0895 6.35134 47.0334 5.58731C46.9773 4.82329 47.6846 4.14748 48.6131 4.07786Z" fill="black"/>
<path d="M52.464 6.40599C53.3925 6.33638 54.1907 6.89931 54.2468 7.66333C54.3029 8.42736 53.5957 9.10316 52.6671 9.17278C51.7386 9.24239 50.9404 8.67946 50.8843 7.91544C50.8282 7.15141 51.5354 6.47561 52.464 6.40599Z" fill="black"/>
<path d="M38.0551 20.5599C37.1373 20.0868 36.004 20.4697 35.5671 21.4163C35.4772 21.611 35.4253 21.8153 35.4087 22.0196C35.3651 22.5515 35.2298 23.072 34.9841 23.5464L34.9182 23.674C34.6655 24.1623 34.3173 24.5945 33.8957 24.9482C33.6962 25.1154 33.5295 25.3285 33.4126 25.5824C33.0229 26.4284 33.3484 27.4464 34.1567 27.9107C34.6899 28.217 35.3066 28.2239 35.8207 27.9905C36.5591 27.655 37.3917 27.5836 38.1847 27.7557C39.1055 27.9556 40.2236 27.8807 40.8455 26.6784C41.4608 25.4888 40.8708 24.5335 40.1743 23.8953C39.5707 23.343 39.167 22.6094 39.0025 21.8088C38.896 21.2895 38.5635 20.8212 38.0546 20.559L38.0551 20.5599Z" fill="black"/>
<path d="M38.3133 28.7631C39.1411 29.1895 39.5269 30.0869 39.1751 30.7674C38.8232 31.4478 37.8669 31.6537 37.0391 31.2273C36.2113 30.8008 35.8255 29.9034 36.1774 29.223C36.5292 28.5425 37.4855 28.3366 38.3133 28.7631Z" fill="black"/>
<path d="M42.774 28.1263C43.6018 28.5528 43.9876 29.4502 43.6358 30.1306C43.2839 30.8111 42.3276 31.017 41.4998 30.5905C40.672 30.1641 40.2862 29.2667 40.6381 28.5863C40.9899 27.9058 41.9462 27.6999 42.774 28.1263Z" fill="black"/>
<path d="M42.3636 20.931C43.1914 21.3575 43.5772 22.2549 43.2254 22.9353C42.8735 23.6158 41.9172 23.8217 41.0894 23.3952C40.2616 22.9688 39.8758 22.0714 40.2277 21.3909C40.5795 20.7105 41.5358 20.5046 42.3636 20.931Z" fill="black"/>
<path d="M44.4273 24.9291C45.2551 25.3556 45.6409 26.2529 45.2891 26.9334C44.9372 27.6139 43.9809 27.8198 43.1531 27.3933C42.3254 26.9668 41.9395 26.0695 42.2914 25.389C42.6433 24.7085 43.5996 24.5026 44.4273 24.9291Z" fill="black"/>
<path d="M83.5444 20.9472C82.5258 20.7756 81.5627 21.4843 81.4357 22.5189C81.4095 22.7319 81.4226 22.9418 81.4689 23.1418C81.5893 23.6619 81.619 24.1986 81.53 24.7252L81.506 24.8672C81.4143 25.4091 81.214 25.9266 80.9203 26.3914C80.7815 26.6114 80.6877 26.8649 80.6537 27.1424C80.5406 28.0668 81.1608 28.9371 82.0724 29.134C82.6738 29.2638 83.2634 29.083 83.6819 28.7045C84.2828 28.1609 85.0544 27.8398 85.8622 27.7627C86.8004 27.6734 87.8426 27.2626 88.0682 25.9284C88.2916 24.608 87.438 23.8775 86.5805 23.4816C85.8373 23.1387 85.2289 22.5629 84.8283 21.8502C84.5682 21.388 84.1091 21.043 83.5444 20.9476V20.9472Z" fill="black"/>
<path d="M86.292 28.6884C87.2106 28.8431 87.8517 29.5807 87.7241 30.3358C87.5964 31.0909 86.7482 31.5775 85.8297 31.4228C84.9111 31.268 84.27 30.5305 84.3977 29.7754C84.5254 29.0203 85.3735 28.5336 86.292 28.6884Z" fill="black"/>
<path d="M90.347 26.7274C91.2655 26.8822 91.9067 27.6197 91.779 28.3748C91.6513 29.1299 90.8032 29.6166 89.8846 29.4618C88.9661 29.3071 88.3249 28.5695 88.4526 27.8144C88.5803 27.0594 89.4284 26.5727 90.347 26.7274Z" fill="black"/>
<path d="M87.762 19.997C88.6806 20.1517 89.3217 20.8893 89.194 21.6444C89.0664 22.3994 88.2182 22.8861 87.2997 22.7314C86.3811 22.5766 85.74 21.8391 85.8677 21.084C85.9953 20.3289 86.8435 19.8422 87.762 19.997Z" fill="black"/>
<path d="M90.9468 23.1786C91.8654 23.3334 92.5065 24.0709 92.3788 24.826C92.2512 25.5811 91.403 26.0678 90.4845 25.913C89.5659 25.7583 88.9248 25.0207 89.0525 24.2656C89.1801 23.5105 90.0283 23.0239 90.9468 23.1786Z" fill="black"/>
<path d="M101.997 8.85931C100.978 8.68768 100.015 9.39641 99.8883 10.431C99.8621 10.644 99.8752 10.854 99.9215 11.0539C100.042 11.574 100.072 12.1107 99.9826 12.6373L99.9586 12.7793C99.8669 13.3212 99.6666 13.8387 99.3729 14.3035C99.2342 14.5235 99.1403 14.777 99.1063 15.0545C98.9933 15.9789 99.6134 16.8492 100.525 17.0461C101.126 17.1759 101.716 16.9951 102.135 16.6166C102.735 16.073 103.507 15.7519 104.315 15.6748C105.253 15.5855 106.295 15.1747 106.521 13.8405C106.744 12.5201 105.891 11.7896 105.033 11.3937C104.29 11.0508 103.682 10.475 103.281 9.76232C103.021 9.30014 102.562 8.95514 101.997 8.85974V8.85931Z" fill="black"/>
<path d="M104.744 16.5985C105.663 16.7533 106.304 17.4908 106.176 18.2459C106.048 19.001 105.2 19.4877 104.282 19.3329C103.363 19.1782 102.722 18.4406 102.85 17.6855C102.977 16.9305 103.825 16.4438 104.744 16.5985Z" fill="black"/>
<path d="M108.798 14.6376C109.717 14.7923 110.358 15.5299 110.23 16.285C110.103 17.0401 109.255 17.5267 108.336 17.372C107.417 17.2172 106.776 16.4797 106.904 15.7246C107.032 14.9695 107.88 14.4828 108.798 14.6376Z" fill="black"/>
<path d="M106.214 7.90712C107.132 8.06187 107.773 8.79943 107.646 9.55452C107.518 10.3096 106.67 10.7963 105.751 10.6415C104.833 10.4868 104.192 9.74921 104.319 8.99413C104.447 8.23904 105.295 7.75237 106.214 7.90712Z" fill="black"/>
<path d="M109.399 11.0888C110.318 11.2435 110.959 11.9811 110.831 12.7362C110.703 13.4912 109.855 13.9779 108.937 13.8232C108.018 13.6684 107.377 12.9309 107.505 12.1758C107.632 11.4207 108.48 10.934 109.399 11.0888Z" fill="black"/>
<path d="M114.841 21.5254C113.835 21.7602 113.221 22.7856 113.505 23.7888C113.563 23.9953 113.657 24.1844 113.777 24.3508C114.089 24.7838 114.325 25.2673 114.446 25.7874L114.479 25.9272C114.604 26.4626 114.621 27.0167 114.529 27.559C114.487 27.8151 114.498 28.0857 114.574 28.3544C114.828 29.2505 115.737 29.8141 116.655 29.6434C117.26 29.531 117.733 29.1368 117.973 28.6262C118.317 27.8927 118.903 27.2989 119.618 26.916C120.449 26.4717 121.251 25.6903 120.942 24.373C120.636 23.0692 119.566 22.7246 118.622 22.6907C117.804 22.6615 117.02 22.3648 116.374 21.8626C115.955 21.5367 115.398 21.3956 114.841 21.5258V21.5254Z" fill="black"/>
<path d="M122.327 28.5776C122.502 29.3233 121.908 30.0994 121.001 30.3111C120.094 30.5228 119.217 30.0899 119.042 29.3443C118.867 28.5986 119.461 27.8225 120.368 27.6108C121.275 27.3991 122.152 27.832 122.327 28.5776Z" fill="black"/>
<path d="M125.306 25.2026C125.481 25.9483 124.887 26.7244 123.98 26.9361C123.073 27.1478 122.196 26.7149 122.021 25.9693C121.847 25.2236 122.44 24.4475 123.347 24.2358C124.255 24.0241 125.131 24.457 125.306 25.2026Z" fill="black"/>
<path d="M120.316 19.9976C120.491 20.7432 119.897 21.5193 118.99 21.731C118.083 21.9427 117.206 21.5098 117.031 20.7642C116.857 20.0185 117.45 19.2424 118.358 19.0308C119.265 18.8191 120.142 19.2519 120.316 19.9976Z" fill="black"/>
<path d="M124.485 21.7007C124.66 22.4463 124.066 23.2224 123.159 23.4341C122.252 23.6458 121.375 23.213 121.2 22.4673C121.026 21.7217 121.619 20.9456 122.526 20.7339C123.434 20.5222 124.31 20.955 124.485 21.7007Z" fill="black"/>
<path d="M19.9199 0.983635C19.0121 0.491835 17.8709 0.85121 17.4149 1.78864C17.3211 1.98161 17.2648 2.18461 17.2438 2.38891C17.1893 2.91991 17.0431 3.43741 16.7878 3.90656L16.7193 4.03289C16.4565 4.51597 16.0991 4.94069 15.6706 5.28569C15.4676 5.44861 15.2966 5.65857 15.1744 5.90992C14.7672 6.74802 15.0714 7.77214 15.8704 8.25305C16.3972 8.57017 17.0138 8.58977 17.5327 8.36718C18.2781 8.047 19.1121 7.99299 19.9011 8.18117C20.8175 8.40028 21.9369 8.34845 22.5837 7.15924C23.2235 5.98223 22.6531 5.01518 21.9705 4.36307C21.3788 3.79853 20.9899 3.05669 20.8424 2.253C20.7464 1.73157 20.4239 1.25676 19.9207 0.984072L19.9199 0.983635Z" fill="black"/>
<path d="M20.0064 9.20178C20.8251 9.64531 21.1922 10.5505 20.8262 11.2235C20.4603 11.8965 19.4999 12.0826 18.6812 11.639C17.8624 11.1955 17.4954 10.2903 17.8613 9.61731C18.2273 8.94428 19.1876 8.75824 20.0064 9.20178Z" fill="black"/>
<path d="M24.479 8.6549C25.2978 9.09844 25.6648 10.0036 25.2989 10.6766C24.9329 11.3497 23.9726 11.5357 23.1538 11.0922C22.3351 10.6486 21.968 9.74346 22.334 9.07043C22.6999 8.3974 23.6603 8.21136 24.479 8.6549Z" fill="black"/>
<path d="M24.2183 1.45373C25.037 1.89727 25.4041 2.80243 25.0381 3.47546C24.6722 4.14849 23.7118 4.33453 22.8931 3.89099C22.0744 3.44745 21.7073 2.54229 22.0732 1.86926C22.4392 1.19623 23.3996 1.01019 24.2183 1.45373Z" fill="black"/>
<path d="M26.1992 5.4928C27.018 5.93633 27.385 6.84149 27.0191 7.51452C26.6532 8.18755 25.6928 8.37359 24.8741 7.93005C24.0553 7.48651 23.6883 6.58136 24.0542 5.90833C24.4201 5.2353 25.3805 5.04926 26.1992 5.4928Z" fill="black"/>
<path d="M4.32263 18.3932C3.29312 18.4704 2.52748 19.3897 2.65075 20.4249C2.67617 20.638 2.73859 20.8392 2.83144 21.0223C3.07268 21.4985 3.22953 22.0129 3.26846 22.5456L3.27914 22.6889C3.31936 23.2373 3.24837 23.7879 3.07442 24.3098C2.99182 24.5566 2.96145 24.8257 2.99457 25.1032C3.10526 26.0284 3.9149 26.7254 4.84711 26.6979C5.46168 26.6798 5.99099 26.3628 6.30711 25.895C6.761 25.2226 7.43332 24.7262 8.1988 24.4579C9.0882 24.1466 10.0018 23.4977 9.90278 22.1477C9.8045 20.8116 8.80178 20.3066 7.87502 20.1271C7.07196 19.9722 6.34374 19.5584 5.78507 18.9621C5.42236 18.5754 4.89432 18.3504 4.3236 18.3931L4.32263 18.3932Z" fill="black"/>
<path d="M8.83946 25.2595C9.76801 25.1899 10.5662 25.7528 10.6223 26.5168C10.6784 27.2809 9.97117 27.9567 9.04262 28.0263C8.11407 28.0959 7.31585 27.533 7.25975 26.769C7.20365 26.0049 7.91091 25.3291 8.83946 25.2595Z" fill="black"/>
<path d="M12.3077 22.3826C13.2363 22.3129 14.0345 22.8759 14.0906 23.6399C14.1467 24.4039 13.4394 25.0797 12.5109 25.1493C11.5823 25.219 10.7841 24.656 10.728 23.892C10.6719 23.128 11.3792 22.4522 12.3077 22.3826Z" fill="black"/>
<path d="M8.19346 16.4646C9.12201 16.395 9.92023 16.9579 9.97633 17.7219C10.0324 18.486 9.32517 19.1618 8.39662 19.2314C7.46807 19.301 6.66985 18.7381 6.61375 17.974C6.55765 17.21 7.26491 16.5342 8.19346 16.4646Z" fill="black"/>
<path d="M12.0443 18.7927C12.9728 18.7231 13.7711 19.286 13.8272 20.0501C13.8833 20.8141 13.176 21.4899 12.2475 21.5595C11.3189 21.6291 10.5207 21.0662 10.4646 20.3022C10.4085 19.5381 11.1157 18.8623 12.0443 18.7927Z" fill="black"/>
</g>
</svg>
