<svg width="126" height="32" viewBox="0 0 126 32" fill="none" xmlns="http://www.w3.org/2000/svg">
<path d="M63.5991 12.0618C62.6913 11.57 61.5501 11.9293 61.0941 12.8668C61.0003 13.0597 60.944 13.2627 60.923 13.467C60.8685 13.998 60.7223 14.5155 60.467 14.9847L60.3985 15.111C60.1357 15.5941 59.7783 16.0188 59.3498 16.3638C59.1468 16.5267 58.9758 16.7367 58.8536 16.988C58.4464 17.8261 58.7506 18.8503 59.5496 19.3312C60.0764 19.6483 60.693 19.6679 61.2119 19.4453C61.9573 19.1251 62.7913 19.0711 63.5803 19.2593C64.4967 19.4784 65.6161 19.4266 66.2629 18.2374C66.9027 17.0603 66.3323 16.0933 65.6497 15.4412C65.058 14.8767 64.6691 14.1348 64.5216 13.3311C64.4256 12.8097 64.1031 12.3349 63.5999 12.0622L63.5991 12.0618Z" fill="black"/>
<path d="M63.6856 20.2838C64.5043 20.7273 64.8714 21.6325 64.5054 22.3055C64.1395 22.9786 63.1791 23.1646 62.3604 22.7211C61.5416 22.2775 61.1746 21.3724 61.5405 20.6993C61.9065 20.0263 62.8668 19.8403 63.6856 20.2838Z" fill="black"/>
<path d="M68.1587 19.7369C68.9775 20.1805 69.3445 21.0856 68.9786 21.7587C68.6126 22.4317 67.6523 22.6177 66.8335 22.1742C66.0148 21.7307 65.6477 20.8255 66.0137 20.1525C66.3796 19.4794 67.34 19.2934 68.1587 19.7369Z" fill="black"/>
<path d="M67.898 12.5338C68.7167 12.9773 69.0838 13.8825 68.7178 14.5555C68.3519 15.2286 67.3915 15.4146 66.5728 14.9711C65.754 14.5275 65.387 13.6224 65.7529 12.9493C66.1189 12.2763 67.0792 12.0903 67.898 12.5338Z" fill="black"/>
<path d="M69.878 16.5729C70.6967 17.0164 71.0638 17.9216 70.6978 18.5946C70.3319 19.2676 69.3715 19.4537 68.5528 19.0101C67.734 18.5666 67.367 17.6614 67.7329 16.9884C68.0989 16.3154 69.0592 16.1293 69.878 16.5729Z" fill="black"/>
<path d="M78.5932 0.335198C77.6855 -0.156603 76.5443 0.202773 76.0882 1.1402C75.9944 1.33317 75.9381 1.53617 75.9172 1.74047C75.8626 2.27147 75.7164 2.78897 75.4611 3.25812L75.3926 3.38445C75.1299 3.86754 74.7725 4.29225 74.3439 4.63726C74.141 4.80017 73.9699 5.01013 73.8477 5.26148C73.4405 6.09959 73.7447 7.1237 74.5438 7.60461C75.0705 7.92173 75.6872 7.94133 76.2061 7.71874C76.9514 7.39857 77.7854 7.34455 78.5744 7.53274C79.4909 7.75185 80.6103 7.70001 81.257 6.5108C81.8968 5.33379 81.3264 4.36674 80.6439 3.71464C80.0521 3.15009 79.6633 2.40825 79.5158 1.60456C79.4197 1.08314 79.0972 0.608325 78.5941 0.335634L78.5932 0.335198Z" fill="black"/>
<path d="M78.6797 8.55334C79.4985 8.99688 79.8655 9.90203 79.4996 10.5751C79.1336 11.2481 78.1733 11.4341 77.3545 10.9906C76.5358 10.5471 76.1687 9.6419 76.5347 8.96887C76.9006 8.29584 77.861 8.1098 78.6797 8.55334Z" fill="black"/>
<path d="M83.1524 8.00646C83.9711 8.45 84.3382 9.35516 83.9722 10.0282C83.6063 10.7012 82.6459 10.8873 81.8272 10.4437C81.0084 10.0002 80.6414 9.09503 81.0073 8.422C81.3733 7.74897 82.3336 7.56293 83.1524 8.00646Z" fill="black"/>
<path d="M82.8916 0.803339C83.7104 1.24688 84.0774 2.15203 83.7115 2.82506C83.3455 3.49809 82.3852 3.68414 81.5664 3.2406C80.7477 2.79706 80.3806 1.8919 80.7466 1.21887C81.1125 0.545843 82.0729 0.359801 82.8916 0.803339Z" fill="black"/>
<path d="M84.8721 4.84241C85.6908 5.28594 86.0579 6.1911 85.692 6.86413C85.326 7.53716 84.3656 7.7232 83.5469 7.27966C82.7282 6.83612 82.3611 5.93097 82.7271 5.25794C83.093 4.58491 84.0534 4.39887 84.8721 4.84241Z" fill="black"/>
<path d="M44.7421 6.00454C43.7126 6.08168 42.9469 7.00107 43.0702 8.03623C43.0956 8.24929 43.158 8.45049 43.2509 8.63367C43.4921 9.10985 43.649 9.62422 43.6879 10.1569L43.6986 10.3002C43.7388 10.8487 43.6678 11.3992 43.4939 11.9211C43.4113 12.1679 43.3809 12.437 43.414 12.7145C43.5247 13.6397 44.3343 14.3367 45.2665 14.3092C45.8811 14.2911 46.4104 13.9742 46.7265 13.5063C47.1804 12.834 47.8528 12.3376 48.6182 12.0692C49.5076 11.758 50.4212 11.1091 50.3222 9.759C50.2239 8.42296 49.2212 7.91791 48.2945 7.73844C47.4914 7.58353 46.7632 7.16976 46.2045 6.57346C45.8418 6.18676 45.3138 5.96174 44.743 6.00444L44.7421 6.00454Z" fill="black"/>
<path d="M49.2594 12.8728C50.1879 12.8032 50.9862 13.3661 51.0423 14.1301C51.0984 14.8942 50.3911 15.57 49.4625 15.6396C48.534 15.7092 47.7358 15.1463 47.6797 14.3822C47.6236 13.6182 48.3308 12.9424 49.2594 12.8728Z" fill="black"/>
<path d="M52.7272 9.99388C53.6557 9.92426 54.4539 10.4872 54.51 11.2512C54.5661 12.0152 53.8589 12.6911 52.9303 12.7607C52.0018 12.8303 51.2035 12.2674 51.1474 11.5033C51.0913 10.7393 51.7986 10.0635 52.7272 9.99388Z" fill="black"/>
<path d="M48.6134 4.07591C49.5419 4.00629 50.3401 4.56923 50.3963 5.33326C50.4524 6.09728 49.7451 6.77308 48.8165 6.8427C47.888 6.91231 47.0898 6.34939 47.0337 5.58536C46.9776 4.82133 47.6848 4.14553 48.6134 4.07591Z" fill="black"/>
<path d="M52.464 6.40404C53.3925 6.33443 54.1907 6.89735 54.2468 7.66138C54.3029 8.42541 53.5957 9.10121 52.6671 9.17082C51.7386 9.24044 50.9404 8.67751 50.8843 7.91348C50.8282 7.14946 51.5354 6.47366 52.464 6.40404Z" fill="black"/>
<path d="M38.0553 20.5618C37.1376 20.0887 36.0042 20.4716 35.5674 21.4182C35.4775 21.6129 35.4255 21.8172 35.409 22.0215C35.3653 22.5534 35.23 23.074 34.9843 23.5483L34.9184 23.676C34.6658 24.1643 34.3175 24.5964 33.8959 24.9501C33.6965 25.1174 33.5298 25.3304 33.4128 25.5844C33.0231 26.4303 33.3487 27.4483 34.1569 27.9127C34.6902 28.2189 35.3068 28.2259 35.8209 27.9924C36.5593 27.657 37.392 27.5855 38.1849 27.7576C39.1057 27.9576 40.2238 27.8826 40.8457 26.6804C41.461 25.4907 40.871 24.5354 40.1745 23.8973C39.571 23.3449 39.1673 22.6114 39.0028 21.8107C38.8963 21.2915 38.5637 20.8232 38.0549 20.5609L38.0553 20.5618Z" fill="black"/>
<path d="M38.3136 28.765C39.1414 29.1915 39.5272 30.0888 39.1753 30.7693C38.8234 31.4498 37.8672 31.6557 37.0394 31.2292C36.2116 30.8028 35.8258 29.9054 36.1776 29.2249C36.5295 28.5445 37.4858 28.3386 38.3136 28.765Z" fill="black"/>
<path d="M42.7745 28.1283C43.6023 28.5548 43.9881 29.4521 43.6362 30.1326C43.2844 30.8131 42.3281 31.019 41.5003 30.5925C40.6725 30.166 40.2867 29.2687 40.6386 28.5882C40.9904 27.9077 41.9467 27.7018 42.7745 28.1283Z" fill="black"/>
<path d="M42.3639 20.933C43.1917 21.3595 43.5775 22.2568 43.2256 22.9373C42.8737 23.6178 41.9175 23.8237 41.0897 23.3972C40.2619 22.9707 39.8761 22.0734 40.2279 21.3929C40.5798 20.7124 41.5361 20.5065 42.3639 20.933Z" fill="black"/>
<path d="M44.4273 24.9291C45.2551 25.3556 45.6409 26.2529 45.2891 26.9334C44.9372 27.6139 43.9809 27.8198 43.1531 27.3933C42.3254 26.9668 41.9395 26.0695 42.2914 25.389C42.6433 24.7085 43.5996 24.5026 44.4273 24.9291Z" fill="black"/>
<path d="M83.5442 20.9472C82.5256 20.7756 81.5624 21.4843 81.4355 22.5189C81.4093 22.7319 81.4224 22.9418 81.4686 23.1418C81.5891 23.6619 81.6187 24.1986 81.5297 24.7252L81.5057 24.8672C81.4141 25.4091 81.2138 25.9266 80.9201 26.3914C80.7813 26.6114 80.6875 26.8649 80.6534 27.1424C80.5404 28.0668 81.1605 28.9371 82.0722 29.134C82.6735 29.2638 83.2631 29.083 83.6816 28.7045C84.2826 28.1609 85.0541 27.8398 85.8619 27.7627C86.8002 27.6734 87.8423 27.2626 88.068 25.9284C88.2914 24.608 87.4378 23.8775 86.5802 23.4816C85.837 23.1387 85.2287 22.5629 84.8281 21.8502C84.568 21.388 84.1089 21.043 83.5442 20.9476V20.9472Z" fill="black"/>
<path d="M86.292 28.6903C87.2106 28.8451 87.8517 29.5826 87.7241 30.3377C87.5964 31.0928 86.7482 31.5795 85.8297 31.4247C84.9111 31.27 84.27 30.5324 84.3977 29.7773C84.5254 29.0222 85.3735 28.5356 86.292 28.6903Z" fill="black"/>
<path d="M90.3467 26.7294C91.2653 26.8841 91.9064 27.6217 91.7787 28.3768C91.6511 29.1319 90.8029 29.6185 89.8844 29.4638C88.9658 29.309 88.3247 28.5715 88.4524 27.8164C88.58 27.0613 89.4282 26.5746 90.3467 26.7294Z" fill="black"/>
<path d="M87.7618 19.9989C88.6803 20.1537 89.3215 20.8912 89.1938 21.6463C89.0661 22.4014 88.218 22.8881 87.2994 22.7333C86.3809 22.5786 85.7397 21.841 85.8674 21.0859C85.9951 20.3308 86.8432 19.8442 87.7618 19.9989Z" fill="black"/>
<path d="M90.9463 23.1786C91.8649 23.3334 92.506 24.0709 92.3784 24.826C92.2507 25.5811 91.4025 26.0678 90.484 25.913C89.5654 25.7583 88.9243 25.0207 89.052 24.2656C89.1797 23.5105 90.0278 23.0239 90.9463 23.1786Z" fill="black"/>
<path d="M101.997 8.85736C100.978 8.68573 100.015 9.39446 99.8881 10.429C99.8619 10.642 99.875 10.852 99.9213 11.0519C100.042 11.5721 100.071 12.1087 99.9824 12.6354L99.9583 12.7774C99.8667 13.3193 99.6664 13.8368 99.3727 14.3016C99.2339 14.5216 99.1401 14.7751 99.1061 15.0526C98.993 15.9769 99.6132 16.8473 100.525 17.0442C101.126 17.174 101.716 16.9932 102.134 16.6146C102.735 16.071 103.507 15.75 104.315 15.6729C105.253 15.5836 106.295 15.1728 106.521 13.8385C106.744 12.5182 105.89 11.7877 105.033 11.3917C104.29 11.0489 103.681 10.473 103.281 9.76037C103.021 9.29819 102.562 8.95319 101.997 8.85779V8.85736Z" fill="black"/>
<path d="M104.744 16.6005C105.662 16.7552 106.303 17.4928 106.176 18.2479C106.048 19.003 105.2 19.4896 104.281 19.3349C103.363 19.1801 102.722 18.4426 102.849 17.6875C102.977 16.9324 103.825 16.4457 104.744 16.6005Z" fill="black"/>
<path d="M108.798 14.6395C109.717 14.7943 110.358 15.5319 110.23 16.2869C110.103 17.042 109.255 17.5287 108.336 17.3739C107.417 17.2192 106.776 16.4816 106.904 15.7265C107.032 14.9715 107.88 14.4848 108.798 14.6395Z" fill="black"/>
<path d="M106.213 7.90517C107.132 8.05992 107.773 8.79748 107.645 9.55257C107.518 10.3076 106.67 10.7943 105.751 10.6396C104.833 10.4848 104.191 9.74726 104.319 8.99217C104.447 8.23709 105.295 7.75042 106.213 7.90517Z" fill="black"/>
<path d="M109.398 11.0888C110.317 11.2435 110.958 11.9811 110.831 12.7362C110.703 13.4912 109.855 13.9779 108.936 13.8232C108.018 13.6684 107.376 12.9309 107.504 12.1758C107.632 11.4207 108.48 10.934 109.398 11.0888Z" fill="black"/>
<path d="M114.84 21.5274C113.834 21.7622 113.221 22.7876 113.504 23.7908C113.563 23.9973 113.656 24.1863 113.776 24.3527C114.089 24.7857 114.324 25.2692 114.446 25.7893L114.479 25.9292C114.604 26.4645 114.62 27.0186 114.529 27.561C114.486 27.8171 114.498 28.0876 114.574 28.3564C114.828 29.2524 115.737 29.8161 116.654 29.6453C117.259 29.533 117.733 29.1387 117.972 28.6282C118.316 27.8946 118.903 27.3009 119.618 26.918C120.449 26.4737 121.251 25.6922 120.942 24.3749C120.636 23.0712 119.566 22.7266 118.622 22.6926C117.804 22.6634 117.019 22.3668 116.374 21.8645C115.955 21.5387 115.398 21.3976 114.84 21.5278V21.5274Z" fill="black"/>
<path d="M122.327 28.5796C122.501 29.3253 121.908 30.1013 121.001 30.313C120.093 30.5247 119.217 30.0919 119.042 29.3462C118.867 28.6006 119.461 27.8245 120.368 27.6128C121.275 27.4011 122.152 27.8339 122.327 28.5796Z" fill="black"/>
<path d="M125.306 25.2046C125.481 25.9503 124.887 26.7263 123.98 26.938C123.073 27.1497 122.196 26.7169 122.021 25.9712C121.847 25.2256 122.44 24.4495 123.347 24.2378C124.255 24.0261 125.131 24.4589 125.306 25.2046Z" fill="black"/>
<path d="M120.316 19.9976C120.491 20.7432 119.897 21.5193 118.99 21.731C118.083 21.9427 117.206 21.5098 117.031 20.7642C116.856 20.0185 117.45 19.2424 118.357 19.0308C119.264 18.8191 120.141 19.2519 120.316 19.9976Z" fill="black"/>
<path d="M124.485 21.7007C124.66 22.4463 124.066 23.2224 123.159 23.4341C122.252 23.6458 121.375 23.213 121.2 22.4673C121.025 21.7217 121.619 20.9456 122.526 20.7339C123.433 20.5222 124.31 20.955 124.485 21.7007Z" fill="black"/>
<path d="M19.9199 0.983635C19.0121 0.491835 17.8709 0.85121 17.4149 1.78864C17.3211 1.98161 17.2648 2.18461 17.2438 2.38891C17.1893 2.91991 17.0431 3.43741 16.7878 3.90656L16.7193 4.03289C16.4565 4.51597 16.0991 4.94069 15.6706 5.28569C15.4676 5.44861 15.2966 5.65857 15.1744 5.90992C14.7672 6.74802 15.0714 7.77214 15.8704 8.25305C16.3972 8.57017 17.0138 8.58977 17.5327 8.36718C18.2781 8.047 19.1121 7.99299 19.9011 8.18117C20.8175 8.40028 21.9369 8.34845 22.5837 7.15924C23.2235 5.98223 22.6531 5.01518 21.9705 4.36307C21.3788 3.79853 20.9899 3.05669 20.8424 2.253C20.7464 1.73157 20.4239 1.25676 19.9207 0.984072L19.9199 0.983635Z" fill="black"/>
<path d="M20.0064 9.20178C20.8251 9.64531 21.1922 10.5505 20.8262 11.2235C20.4603 11.8965 19.4999 12.0826 18.6812 11.639C17.8624 11.1955 17.4954 10.2903 17.8613 9.61731C18.2273 8.94428 19.1876 8.75824 20.0064 9.20178Z" fill="black"/>
<path d="M24.479 8.6549C25.2978 9.09844 25.6648 10.0036 25.2989 10.6766C24.9329 11.3497 23.9726 11.5357 23.1538 11.0922C22.3351 10.6486 21.968 9.74346 22.334 9.07043C22.6999 8.3974 23.6603 8.21136 24.479 8.6549Z" fill="black"/>
<path d="M24.2183 1.45178C25.037 1.89531 25.4041 2.80047 25.0381 3.4735C24.6722 4.14653 23.7118 4.33257 22.8931 3.88903C22.0744 3.4455 21.7073 2.54034 22.0732 1.86731C22.4392 1.19428 23.3996 1.00824 24.2183 1.45178Z" fill="black"/>
<path d="M26.1992 5.49084C27.018 5.93438 27.385 6.83954 27.0191 7.51256C26.6532 8.18559 25.6928 8.37164 24.8741 7.9281C24.0553 7.48456 23.6883 6.5794 24.0542 5.90637C24.4201 5.23334 25.3805 5.04731 26.1992 5.49084Z" fill="black"/>
<path d="M4.32263 18.3913C3.29312 18.4684 2.52748 19.3878 2.65075 20.4229C2.67617 20.636 2.73859 20.8372 2.83144 21.0204C3.07268 21.4966 3.22953 22.0109 3.26846 22.5436L3.27914 22.6869C3.31936 23.2354 3.24837 23.7859 3.07442 24.3079C2.99182 24.5546 2.96145 24.8238 2.99457 25.1013C3.10526 26.0264 3.9149 26.7234 4.84711 26.6959C5.46168 26.6778 5.99099 26.3609 6.30711 25.8931C6.761 25.2207 7.43332 24.7243 8.1988 24.4559C9.0882 24.1447 10.0018 23.4958 9.90278 22.1457C9.8045 20.8097 8.80178 20.3046 7.87502 20.1252C7.07196 19.9703 6.34374 19.5565 5.78507 18.9602C5.42236 18.5735 4.89432 18.3485 4.3236 18.3912L4.32263 18.3913Z" fill="black"/>
<path d="M8.83995 25.2595C9.7685 25.1899 10.5667 25.7528 10.6228 26.5168C10.6789 27.2809 9.97166 27.9567 9.04311 28.0263C8.11456 28.0959 7.31634 27.533 7.26024 26.769C7.20414 26.0049 7.9114 25.3291 8.83995 25.2595Z" fill="black"/>
<path d="M12.3077 22.3806C13.2363 22.311 14.0345 22.8739 14.0906 23.6379C14.1467 24.402 13.4394 25.0778 12.5109 25.1474C11.5823 25.217 10.7841 24.6541 10.728 23.89C10.6719 23.126 11.3792 22.4502 12.3077 22.3806Z" fill="black"/>
<path d="M8.19395 16.4626C9.1225 16.393 9.92072 16.9559 9.97682 17.72C10.0329 18.484 9.32566 19.1598 8.39711 19.2294C7.46856 19.299 6.67034 18.7361 6.61424 17.9721C6.55814 17.2081 7.2654 16.5322 8.19395 16.4626Z" fill="black"/>
<path d="M12.0445 18.7908C12.9731 18.7211 13.7713 19.2841 13.8274 20.0481C13.8835 20.8121 13.1762 21.4879 12.2477 21.5575C11.3191 21.6272 10.5209 21.0642 10.4648 20.3002C10.4087 19.5362 11.116 18.8604 12.0445 18.7908Z" fill="black"/>
</svg>
