<svg width="67" height="16" viewBox="0 0 67 16" fill="none" xmlns="http://www.w3.org/2000/svg">
<g clip-path="url(#clip0_2026_27507)">
<path d="M29.3299 14.1069C28.8362 13.5439 28.5894 12.8459 28.5894 12.0168C28.5894 11.6543 28.6318 11.2416 28.7205 10.7827C28.8054 10.3238 28.8979 9.87644 28.9943 9.44452C29.0908 9.0126 29.1525 8.73494 29.1872 8.61153C29.326 8.00607 29.4571 7.40833 29.5767 6.8183C29.6962 6.22826 29.758 5.75392 29.758 5.38756C29.758 4.50444 29.4456 4.06095 28.8208 4.06095C28.3696 4.06095 27.9724 4.28077 27.6253 4.72426C27.2782 5.16775 27.0005 5.74235 26.7922 6.45194L25.0259 14.7895H21.285L23.1825 5.8272C23.2326 5.61895 23.2596 5.40299 23.2596 5.17932C23.2596 4.41574 23.0012 4.03782 22.4806 4.03782C21.9946 4.03782 21.5743 4.25763 21.2195 4.70112C20.8647 5.14461 20.5831 5.72693 20.3749 6.45579L18.6086 14.7934H14.8677L17.6251 1.80495H21.366L21.0806 3.15469C21.9638 2.16745 23.0205 1.67383 24.2507 1.67383C25.7741 1.67383 26.6688 2.41812 26.9272 3.9067C27.8798 2.43354 29.083 1.69697 30.537 1.69697C31.4201 1.69697 32.122 1.93992 32.6427 2.42583C33.1633 2.91174 33.4217 3.64832 33.4217 4.63556C33.4217 5.1369 33.36 5.69608 33.2404 6.3131C33.1209 6.92628 32.9473 7.67828 32.7198 8.5614C32.581 9.09744 32.4537 9.62192 32.3419 10.1348C32.23 10.6477 32.1722 11.0488 32.1722 11.3419C32.1722 11.689 32.2493 11.9551 32.4074 12.1479C32.5655 12.3407 32.8316 12.4332 33.2135 12.4332C33.7341 12.4332 34.1506 12.2481 34.4591 11.8741C34.7715 11.5038 35.0839 10.9254 35.3924 10.1464H36.4838C35.8436 12.0515 35.1032 13.3279 34.2624 13.9797C33.4217 14.6276 32.5501 14.9553 31.6515 14.9553C30.5948 14.9553 29.8197 14.6738 29.326 14.1108L29.3299 14.1069Z" fill="black"/>
<path d="M36.1526 13.8972C35.4083 13.2378 35.0342 12.2004 35.0342 10.7812C35.0342 9.605 35.2771 8.29767 35.7631 6.85923C36.249 5.42078 37.028 4.17901 38.1002 3.13006C39.1723 2.08111 40.5259 1.55664 42.1534 1.55664C44.3709 1.55664 45.4778 2.9411 45.4778 5.71387V5.74086C45.5279 5.75629 45.6243 5.76786 45.7632 5.76786C46.3339 5.76786 46.9934 5.61746 47.7377 5.3128C48.4821 5.00814 49.157 4.64178 49.7624 4.20986L49.9977 4.91173C49.4963 5.44777 48.8407 5.90283 48.0347 6.27691C47.2287 6.65098 46.3494 6.91322 45.3968 7.06747C45.258 8.64475 44.9032 10.0215 44.3324 11.1977C43.7616 12.3739 43.025 13.284 42.1226 13.9242C41.2201 14.5644 40.2444 14.8844 39.1877 14.8844C37.9073 14.8844 36.893 14.5567 36.1487 13.8972H36.1526ZM41.4785 11.8302C41.895 11.3558 42.2575 10.7041 42.5699 9.88267C42.8823 9.06125 43.106 8.14727 43.2448 7.14075C42.7782 7.03662 42.5429 6.67412 42.5429 6.04938C42.5429 5.3398 42.8129 4.87317 43.349 4.64564C43.3142 4.07489 43.2255 3.68153 43.0906 3.46557C42.9517 3.24961 42.7088 3.14163 42.3617 3.14163C41.7909 3.14163 41.2356 3.55813 40.6995 4.38726C40.1634 5.22025 39.7276 6.2152 39.3998 7.37599C39.072 8.53677 38.9062 9.55873 38.9062 10.4418C38.9062 11.2748 39.0026 11.8302 39.1916 12.1155C39.3805 12.4009 39.7276 12.5436 40.2328 12.5436C40.6493 12.5436 41.0659 12.3045 41.4785 11.8302Z" fill="black"/>
<path d="M48.5734 1.79883H52.3143L51.9749 3.41081C52.5649 2.8902 53.0971 2.49298 53.5715 2.21532C54.0459 1.93766 54.5626 1.79883 55.118 1.79883C55.6733 1.79883 56.1091 1.99165 56.4292 2.36958C56.7493 2.75137 56.9113 3.21028 56.9113 3.74632C56.9113 4.24766 56.7455 4.69115 56.4177 5.07293C56.0899 5.45472 55.6309 5.64368 55.0409 5.64368C54.6591 5.64368 54.4045 5.55113 54.2734 5.36988C54.1423 5.18863 54.042 4.92253 53.9726 4.57931C53.9225 4.35564 53.8685 4.18981 53.8183 4.08569C53.7682 3.98156 53.6718 3.93143 53.5329 3.93143C53.1704 3.93143 52.8619 4.0047 52.6112 4.15125C52.3605 4.29779 52.0366 4.55232 51.6355 4.91868L49.5568 14.7911H45.8159L48.5734 1.79883Z" fill="black"/>
<path d="M57.2749 13.9318C56.5653 13.2647 56.2104 12.2234 56.2104 10.8004C56.2104 9.6049 56.4457 8.28986 56.9124 6.85141C57.379 5.41297 58.1426 4.1712 59.1993 3.12225C60.256 2.0733 61.5981 1.54883 63.2256 1.54883C65.1307 1.54883 66.0833 2.38182 66.0833 4.04394C66.0833 5.01576 65.8056 5.90659 65.2503 6.7203C64.6949 7.534 63.9583 8.18959 63.0405 8.68322C62.1226 9.17684 61.143 9.45836 60.1056 9.52777C60.0709 9.90956 60.0555 10.1679 60.0555 10.3068C60.0555 11.7452 60.5915 12.4625 61.6675 12.4625C62.1534 12.4625 62.6702 12.3314 63.2256 12.073C63.7809 11.8146 64.2823 11.483 64.7335 11.0858C64.2669 13.6503 62.7666 14.9306 60.2406 14.9306C58.9756 14.9306 57.9883 14.599 57.2787 13.9318H57.2749ZM62.1457 7.63041C62.7242 7.21392 63.1947 6.68173 63.5495 6.03385C63.9043 5.38597 64.0817 4.70338 64.0817 3.9938C64.0817 3.28422 63.8658 2.92943 63.4338 2.92943C62.8283 2.92943 62.2267 3.4809 61.6289 4.57998C61.0312 5.67906 60.5838 6.91312 60.2907 8.28215C60.9502 8.26672 61.5672 8.04691 62.1496 7.63427L62.1457 7.63041Z" fill="black"/>
<path d="M10.0452 9.6079C10.7625 8.92531 11.3487 8.28129 11.8038 7.67197L13.7938 9.58861C13.5894 9.86242 13.3618 10.1401 13.1034 10.4216C12.845 10.7031 12.5519 11.0001 12.2164 11.3086L11.9465 11.5592L14.9585 14.7678H10.5851L9.40112 13.5299C7.78907 14.6058 6.23872 15.1419 4.7578 15.1419C4.12532 15.1419 3.54297 15.0455 3.01848 14.8565C2.49398 14.6637 2.03891 14.3976 1.65711 14.0505C1.27531 13.7034 0.974492 13.2946 0.758523 12.8242C0.542555 12.3537 0.43457 11.8369 0.43457 11.2739C0.43457 10.7725 0.503989 10.3252 0.642826 9.93955C0.781663 9.55005 1.01691 9.17598 1.35244 8.81733C1.60311 8.54352 1.88079 8.30442 2.18546 8.10775C2.49013 7.91107 2.86422 7.71054 3.30772 7.50615L3.68567 7.32875L3.45427 7.0588C2.76009 6.18725 2.413 5.35426 2.413 4.56755C2.413 4.04308 2.52098 3.55331 2.73695 3.09825C2.95292 2.6432 3.24987 2.2537 3.62396 1.9259C3.99805 1.5981 4.44541 1.33972 4.95834 1.15462C5.47127 0.969507 6.02661 0.876953 6.62438 0.876953C7.22215 0.876953 7.79678 0.969507 8.30971 1.15462C8.82263 1.33972 9.27 1.60196 9.64409 1.93361C10.022 2.26912 10.3151 2.65862 10.5234 3.10597C10.7316 3.55331 10.8358 4.04308 10.8358 4.56755C10.8358 4.9262 10.7933 5.25399 10.7085 5.54323C10.6237 5.83631 10.4848 6.11012 10.2881 6.3685C10.0914 6.62688 9.83306 6.86983 9.51682 7.10508C9.20058 7.34032 8.80721 7.57556 8.34442 7.81466L10.049 9.6079H10.0452ZM5.34785 9.12584C4.49941 9.65032 4.07518 10.1786 4.07518 10.7031C4.07518 10.8959 4.11761 11.0695 4.20245 11.2315C4.2873 11.3934 4.39914 11.5323 4.54183 11.6441C4.68452 11.7559 4.85036 11.8485 5.03547 11.914C5.22059 11.9796 5.42113 12.0143 5.6371 12.0143C6.23487 12.0143 6.85192 11.8176 7.4844 11.4243L5.35171 9.1297L5.34785 9.12584ZM6.80179 6.18725C7.63866 5.68591 8.05517 5.12288 8.05517 4.50199C8.05517 4.16648 7.94333 3.87725 7.72351 3.6343C7.50368 3.39134 7.2183 3.26794 6.8712 3.26794C6.54725 3.26794 6.28115 3.37592 6.06518 3.59188C5.84921 3.80783 5.74123 4.07393 5.74123 4.39787C5.74123 4.82979 6.09218 5.42753 6.79793 6.1911L6.80179 6.18725Z" fill="black"/>
</g>
<defs>
<clipPath id="clip0_2026_27507">
<rect width="65.6466" height="14.2726" fill="white" transform="translate(0.426758 0.886719)"/>
</clipPath>
</defs>
</svg>
