<svg width="80" height="80" viewBox="0 0 80 80" fill="none" xmlns="http://www.w3.org/2000/svg">
<g clip-path="url(#clip0_2056_27741)">
<path d="M49.0002 45.0013C45.3335 38.3346 44.1969 36.668 40.0002 36.668C35.8035 36.668 34.2135 39.1846 30.5469 45.8246C27.4069 51.5013 21.0602 51.9746 19.4769 56.7946C19.1535 57.678 18.9935 59.0513 19.0002 60.0013C19.0002 63.9213 21.6235 66.668 25.0002 66.668C29.1969 66.668 35.0002 63.3346 40.0002 63.3346C45.0002 63.3346 50.8035 66.668 55.0002 66.668C58.3769 66.668 61.0002 63.9246 61.0002 60.0013C61.0002 59.0513 60.8369 57.678 60.5135 56.7946C58.9302 51.958 52.1402 50.678 49.0002 45.0013Z" stroke="white" stroke-width="3" stroke-linecap="round" stroke-linejoin="round"/>
<path d="M67.2931 26.9413C66.8649 26.7603 66.4047 26.6673 65.9398 26.668H65.8898C63.4398 26.708 60.6898 29.168 59.2464 32.888C57.5164 37.338 58.3131 41.888 61.0398 43.0613C61.4698 43.2446 61.9298 43.3346 62.3931 43.3346C64.8564 43.3346 67.6431 40.8613 69.0964 37.1146C70.8164 32.6646 70.0031 28.1146 67.2931 26.9413Z" stroke="white" stroke-width="3" stroke-linecap="round" stroke-linejoin="round"/>
<path d="M31.5802 29.9987C31.7636 29.9987 31.9436 29.9987 32.1236 29.962C35.2702 29.5354 37.2336 25.4754 36.5236 20.8887C35.8469 16.5654 33.0336 13.332 30.0836 13.332C29.9002 13.332 29.7202 13.332 29.5402 13.3687C26.3936 13.7954 24.4302 17.8554 25.1402 22.442C25.8202 26.752 28.6336 29.9987 31.5836 29.9987H31.5802Z" stroke="white" stroke-width="3" stroke-linecap="round" stroke-linejoin="round"/>
<path d="M54.8531 22.442C55.5665 17.8554 53.6031 13.7954 50.4531 13.3687C50.2742 13.3439 50.0938 13.3317 49.9131 13.332C46.9631 13.332 44.1531 16.5654 43.4798 20.8887C42.7665 25.4754 44.7298 29.5354 47.8798 29.962C48.0598 29.9854 48.2398 29.9987 48.4198 29.9987C51.3698 29.9987 54.1865 26.752 54.8531 22.442Z" stroke="white" stroke-width="3" stroke-linecap="round" stroke-linejoin="round"/>
<path d="M18.9666 43.0613C21.6866 41.888 22.4799 37.3313 20.7532 32.888C19.2999 29.1413 16.5166 26.668 14.0566 26.668C13.5899 26.668 13.1332 26.758 12.6999 26.9413C9.9799 28.1146 9.18657 32.6713 10.9132 37.1146C12.3666 40.8613 15.1499 43.3346 17.6099 43.3346C18.0766 43.3346 18.5332 43.2446 18.9666 43.0613Z" stroke="white" stroke-width="3" stroke-linecap="round" stroke-linejoin="round"/>
</g>
<defs>
<clipPath id="clip0_2056_27741">
<rect width="80" height="80" fill="white"/>
</clipPath>
</defs>
</svg>
