<svg width="162" height="162" viewBox="0 0 162 162" fill="none" xmlns="http://www.w3.org/2000/svg">
<g id="Frame" clip-path="url(#clip0_810_23230)">
<path id="Vector" d="M99.225 91.125C91.8 77.625 89.4983 74.25 81 74.25C72.5018 74.25 69.282 79.3462 61.857 92.7922C55.4985 104.287 42.6465 105.246 39.4403 115.007C38.7855 116.795 38.4615 119.576 38.475 121.5C38.475 129.438 43.7873 135 50.625 135C59.1233 135 70.875 128.25 81 128.25C91.125 128.25 102.877 135 111.375 135C118.213 135 123.525 129.445 123.525 121.5C123.525 119.576 123.194 116.795 122.54 115.007C119.333 105.212 105.584 102.62 99.225 91.125Z" stroke="url(#paint0_linear_810_23230)" stroke-width="4" stroke-linecap="round" stroke-linejoin="round"/>
<path id="Vector_2" d="M136.268 54.5535C135.401 54.1869 134.469 53.9987 133.528 54H133.426C128.465 54.081 122.896 59.0625 119.974 66.5955C116.47 75.6068 118.084 84.8205 123.605 87.1965C124.476 87.5678 125.407 87.75 126.346 87.75C131.334 87.75 136.977 82.7415 139.92 75.1545C143.403 66.1433 141.756 56.9295 136.268 54.5535Z" stroke="url(#paint1_linear_810_23230)" stroke-width="4" stroke-linecap="round" stroke-linejoin="round"/>
<path id="Vector_3" d="M63.9501 60.75C64.3214 60.75 64.6859 60.75 65.0504 60.6758C71.4224 59.8118 75.3981 51.5903 73.9604 42.3023C72.5901 33.5475 66.8931 27 60.9194 27C60.5481 27 60.1836 27 59.8191 27.0743C53.4471 27.9383 49.4714 36.1597 50.9091 45.4477C52.2861 54.1755 57.9831 60.75 63.9569 60.75H63.9501Z" stroke="url(#paint2_linear_810_23230)" stroke-width="4" stroke-linecap="round" stroke-linejoin="round"/>
<path id="Vector_4" d="M111.077 45.4478C112.522 36.1598 108.546 27.9383 102.167 27.0743C101.805 27.0241 101.44 26.9993 101.074 27C95.1 27 89.4098 33.5475 88.0463 42.3023C86.6018 51.5903 90.5775 59.8118 96.9563 60.6758C97.3208 60.723 97.6853 60.75 98.0498 60.75C104.024 60.75 109.727 54.1755 111.077 45.4478Z" stroke="url(#paint3_linear_810_23230)" stroke-width="4" stroke-linecap="round" stroke-linejoin="round"/>
<path id="Vector_5" d="M38.4083 87.1965C43.9163 84.8205 45.5228 75.5933 42.0263 66.5955C39.0833 59.0085 33.447 54 28.4655 54C27.5205 54 26.5958 54.1822 25.7183 54.5535C20.2103 56.9295 18.6038 66.1567 22.1003 75.1545C25.0433 82.7415 30.6795 87.75 35.661 87.75C36.606 87.75 37.5308 87.5678 38.4083 87.1965Z" stroke="url(#paint4_linear_810_23230)" stroke-width="4" stroke-linecap="round" stroke-linejoin="round"/>
</g>
<defs>
<linearGradient id="paint0_linear_810_23230" x1="80.9965" y1="134.992" x2="80.9965" y2="74.2478" gradientUnits="userSpaceOnUse">
<stop offset="0.02" stop-color="#7CCBFF"/>
<stop offset="1" stop-color="#0057FF"/>
</linearGradient>
<linearGradient id="paint1_linear_810_23230" x1="129.935" y1="87.7453" x2="129.935" y2="53.9988" gradientUnits="userSpaceOnUse">
<stop offset="0.02" stop-color="#7CCBFF"/>
<stop offset="1" stop-color="#0057FF"/>
</linearGradient>
<linearGradient id="paint2_linear_810_23230" x1="62.4338" y1="60.7453" x2="62.4338" y2="26.9988" gradientUnits="userSpaceOnUse">
<stop offset="0.02" stop-color="#7CCBFF"/>
<stop offset="1" stop-color="#0057FF"/>
</linearGradient>
<linearGradient id="paint3_linear_810_23230" x1="99.5609" y1="60.7453" x2="99.5609" y2="26.9988" gradientUnits="userSpaceOnUse">
<stop offset="0.02" stop-color="#7CCBFF"/>
<stop offset="1" stop-color="#0057FF"/>
</linearGradient>
<linearGradient id="paint4_linear_810_23230" x1="32.0623" y1="87.7453" x2="32.0623" y2="53.9988" gradientUnits="userSpaceOnUse">
<stop offset="0.02" stop-color="#7CCBFF"/>
<stop offset="1" stop-color="#0057FF"/>
</linearGradient>
<clipPath id="clip0_810_23230">
<rect width="162" height="162" fill="white"/>
</clipPath>
</defs>
</svg>
